# xmcd
#
# Track frame offsets:
#	182
#	11417
#	22547
#	30687
#	44622
#	56417
#	68260
#	79272
#
# Disc length: 1188 seconds
#
# Revision: 0
# Processed by: cddbd v1.5.2PL0 Copyright (c) Steve Scherf et al.
# Submitted via: FairStars CD Ripper 1.90
#
DISCID=5004a208
DTITLE=Willie and Conway - Willie and Conway
DYEAR=1993
DGENRE=Country
TTITLE0=Willie Nelson - Suffering In Silence
TTITLE1=Conway Twitty - Hello Darlin'
TTITLE2=Willie Nelson - You Wouldn't Even Cross The Street To Say Goodbye
TTITLE3=Conway Twitty - Fifteen Years Ago
TTITLE4=Willie Nelson - Happiness Lives Next Door
TTITLE5=Conway Twitty - Linda On My Mind
TTITLE6=Willie Nelson - A New Way To Cry
TTITLE7=Willie Nelson - Healing Hands Of Time
EXTD=
EXTT0=
EXTT1=
EXTT2=
EXTT3=
EXTT4=
EXTT5=
EXTT6=
EXTT7=
PLAYORDER=
